<?xml version="1.0" standalone="no"?>
<!DOCTYPE svg PUBLIC "-//W3C//DTD SVG 20010904//EN"
 "http://www.w3.org/TR/2001/REC-SVG-20010904/DTD/svg10.dtd">
<svg version="1.0" xmlns="http://www.w3.org/2000/svg"
 width="512.000000pt" height="512.000000pt" viewBox="0 0 512.000000 512.000000"
 preserveAspectRatio="xMidYMid meet">
<metadata>
Created by potrace 1.11, written by Peter Selinger 2001-2013
</metadata>
<g transform="translate(0.000000,512.000000) scale(0.100000,-0.100000)"
fill="#000000" stroke="none">
<path d="M1815 4744 c-16 -2 -66 -9 -109 -15 -102 -14 -221 -48 -336 -98 -51
-22 -94 -42 -97 -44 -2 -3 3 -21 11 -42 9 -20 19 -72 22 -114 l7 -78 86 44
c100 51 203 85 327 109 132 24 354 15 489 -21 198 -52 372 -153 520 -300 239
-236 360 -550 341 -880 -33 -590 -501 -1058 -1091 -1091 -330 -19 -644 102
-880 341 -147 147 -247 320 -301 520 -25 91 -28 116 -28 285 -1 160 2 197 21
272 27 104 74 229 89 235 5 2 47 -17 92 -42 98 -54 140 -58 171 -19 20 26 21
34 15 313 -6 332 -9 366 -35 392 -37 37 -65 25 -324 -132 -297 -180 -304 -184
-316 -216 -16 -43 12 -76 106 -128 47 -25 85 -49 85 -54 0 -4 -16 -46 -35 -94
-149 -369 -133 -780 43 -1132 170 -341 454 -585 818 -704 l89 -29 -39 -16
c-73 -30 -202 -125 -272 -198 -246 -260 -318 -625 -188 -957 33 -83 45 -97 72
-82 11 6 44 11 72 11 28 0 50 3 48 8 -88 171 -103 229 -103 402 1 132 3 152
29 225 84 242 252 410 491 491 99 33 257 43 361 24 282 -52 507 -256 596 -540
20 -64 23 -95 22 -210 -1 -118 -4 -145 -27 -215 -81 -244 -258 -420 -502 -502
-71 -23 -95 -26 -220 -27 -126 0 -148 3 -220 27 -119 40 -115 35 -77 112 36
74 35 101 -5 111 -32 8 -412 -1 -435 -11 -40 -16 -31 -44 58 -193 130 -219
140 -232 174 -232 25 0 34 8 65 64 l36 65 56 -25 c101 -45 216 -67 348 -67
154 0 264 25 400 93 286 142 460 400 501 743 l5 48 65 -70 c434 -468 1173
-480 1629 -26 331 329 425 848 231 1262 l-34 71 -39 -13 c-21 -8 -64 -14 -96
-15 l-57 0 40 -80 c86 -172 120 -390 90 -578 -48 -301 -248 -569 -524 -702
-260 -126 -575 -125 -831 3 -265 132 -450 372 -510 661 -20 102 -21 280 0 382
70 343 348 635 690 725 114 30 294 36 410 14 95 -18 248 -71 243 -85 -2 -5
-21 -41 -42 -82 -44 -83 -44 -121 -1 -138 15 -6 128 -7 284 -2 235 6 261 9
280 26 12 11 21 29 21 40 0 20 -243 430 -278 469 -8 9 -28 17 -43 17 -31 0
-61 -33 -99 -110 -12 -25 -24 -47 -25 -48 -2 -2 -43 12 -92 32 -273 109 -571
108 -849 -4 -42 -17 -78 -29 -80 -27 -2 1 8 38 22 81 43 135 57 260 51 441 -3
90 -13 193 -22 235 -119 545 -538 959 -1083 1070 -97 19 -312 33 -377 24z"/>
<path d="M1865 4336 c-37 -16 -83 -68 -91 -102 -17 -69 22 -155 82 -180 179
-75 307 153 152 269 -33 25 -104 31 -143 13z"/>
<path d="M2245 3740 l-310 -310 -259 0 -258 0 -34 -34 c-28 -28 -34 -42 -34
-76 0 -34 6 -48 34 -76 l34 -34 269 0 c147 0 273 4 278 8 6 4 169 167 363 363
316 319 352 359 352 388 0 45 -38 81 -87 81 -36 0 -51 -13 -348 -310z"/>
<path d="M1025 3496 c-37 -16 -83 -68 -91 -102 -17 -69 19 -149 80 -178 110
-52 233 29 223 147 -9 106 -120 175 -212 133z"/>
<path d="M2705 3496 c-37 -16 -83 -68 -91 -102 -18 -73 27 -163 92 -184 48
-16 115 -8 152 19 39 27 67 98 59 148 -16 97 -126 159 -212 119z"/>
<path d="M3669 2674 c-108 -70 -61 -234 66 -234 112 0 166 134 87 213 -38 37
-112 47 -153 21z"/>
<path d="M1854 2650 c-110 -56 -110 -222 0 -274 110 -52 233 29 223 147 -10
113 -123 178 -223 127z"/>
<path d="M2979 1983 c-38 -23 -59 -64 -59 -113 0 -36 6 -48 39 -81 33 -33 45
-39 81 -39 76 0 130 52 130 125 0 97 -110 159 -191 108z"/>
<path d="M4358 1984 c-54 -29 -74 -113 -43 -174 35 -69 140 -79 199 -21 27 28
31 38 31 87 0 51 -3 58 -37 90 -31 28 -45 34 -80 34 -24 -1 -55 -7 -70 -16z"/>
<path d="M3414 1700 c-269 -271 -289 -293 -292 -329 -2 -31 2 -42 20 -55 50
-35 58 -29 328 239 l256 255 211 0 c209 0 212 0 240 24 39 34 39 98 0 132 -28
24 -30 24 -251 24 l-223 0 -289 -290z"/>
<path d="M1873 1815 c-25 -18 -47 -77 -38 -104 20 -65 87 -96 143 -67 39 20
52 44 52 94 0 55 -38 92 -94 92 -23 0 -51 -7 -63 -15z"/>
<path d="M2148 1435 l-201 -205 -173 0 c-161 0 -176 -2 -194 -20 -11 -11 -20
-33 -20 -50 0 -17 9 -39 20 -50 19 -19 33 -20 198 -20 l179 0 229 230 c126
127 233 239 238 250 13 28 -17 70 -50 70 -19 0 -70 -46 -226 -205z"/>
<path d="M3668 1294 c-36 -19 -58 -63 -58 -114 0 -32 7 -48 34 -78 32 -34 39
-37 90 -37 49 0 59 4 87 31 58 59 48 157 -21 197 -34 21 -96 21 -132 1z"/>
<path d="M1323 1265 c-12 -8 -27 -31 -33 -50 -10 -30 -9 -41 7 -72 54 -111
215 -49 182 70 -5 20 -20 43 -32 52 -28 19 -96 19 -124 0z"/>
<path d="M2427 1269 c-9 -5 -24 -24 -33 -41 -41 -79 35 -166 121 -138 45 15
65 44 65 96 0 57 -37 94 -94 94 -22 0 -49 -5 -59 -11z"/>
<path d="M1890 722 c-76 -38 -72 -145 5 -178 70 -29 135 14 135 89 0 51 -15
76 -55 93 -43 18 -43 18 -85 -4z"/>
</g>
</svg>
