<?xml version="1.0" ?><!DOCTYPE svg  PUBLIC '-//W3C//DTD SVG 1.1//EN'  'http://www.w3.org/Graphics/SVG/1.1/DTD/svg11.dtd'><svg enable-background="new 0 0 512 512" height="512px" id="Layer_1" version="1.1" viewBox="0 0 512 512" width="512px" xml:space="preserve" xmlns="http://www.w3.org/2000/svg" xmlns:xlink="http://www.w3.org/1999/xlink"><g id="time_x5F_milestones"><circle cx="192.414" cy="92.727" fill="#2F90B2" r="15.855"/><circle cx="192.414" cy="260.677" fill="#2F90B2" r="15.855"/><circle cx="108.439" cy="176.702" fill="#2F90B2" r="15.855"/><circle cx="276.389" cy="176.702" fill="#2F90B2" r="15.855"/><path d="M265.698,108.895c-3.377-3.377-8.853-3.377-12.231,0l-59.343,59.566c-0.65-0.114-1.316,0.039-1.999,0.039   h-46.125c-6.369,0-11.531,5.131-11.531,11.5c0,6.369,5.163,11.5,11.531,11.5h46.125c4.777,0,8.875-3.096,10.625-7.235   l62.948-63.044C269.076,117.844,269.076,112.272,265.698,108.895z" fill="#2F90B2"/><circle cx="373.414" cy="393.376" fill="#2F90B2" r="13.009"/><circle cx="373.414" cy="255.579" fill="#2F90B2" r="13.009"/><circle cx="442.312" cy="324.478" fill="#2F90B2" r="13.009"/><circle cx="304.515" cy="324.478" fill="#2F90B2" r="13.009"/><path d="M313.287,380.111c2.771,2.771,7.264,2.771,10.035,0l48.689-48.726c0.534,0.094,1.079,0.115,1.64,0.115   h37.844c5.225,0,9.461-4.275,9.461-9.5s-4.236-9.5-9.461-9.5H373.65c-3.919,0-7.282,2.458-8.718,5.854l-51.646,51.684   C310.515,372.809,310.515,377.34,313.287,380.111z" fill="#2F90B2"/><circle cx="193.414" cy="338.699" fill="#2F90B2" r="10.368"/><circle cx="193.414" cy="448.521" fill="#2F90B2" r="10.368"/><circle cx="138.503" cy="393.61" fill="#2F90B2" r="10.368"/><circle cx="248.325" cy="393.61" fill="#2F90B2" r="10.368"/><path d="M241.335,349.271c-2.208-2.209-5.789-2.209-7.998,0l-38.805,39.077c-0.425-0.075-0.86,0.152-1.307,0.152   h-30.161c-4.165,0-7.54,3.336-7.54,7.5s3.376,7.5,7.54,7.5h30.161c3.124,0,5.803-2.131,6.948-4.838l41.162-41.278   C243.544,355.176,243.544,351.479,241.335,349.271z" fill="#2F90B2"/><path d="M473.071,270.779c-3.141,2.01-6.996,3.146-11.293,3.244l-8.054,0.185   c9.237,14.636,14.591,31.956,14.591,50.505c0,52.329-42.572,94.901-94.901,94.901c-52.328,0-94.901-42.572-94.901-94.901   c0-52.328,42.573-94.901,94.901-94.901c14.999,0,29.191,3.508,41.813,9.731l-6.969,12.739c-3.249,5.938-0.37,10.669,6.397,10.514   l46.84-1.077c6.767-0.156,9.425-5.014,5.907-10.797l-24.353-40.026c-3.518-5.783-9.055-5.655-12.304,0.283l-6.672,12.195   c-15.246-7.639-32.445-11.955-50.659-11.955c-18.67,0-36.284,4.519-51.812,12.518c5.689-15.122,8.81-31.501,8.81-48.612   c0-76.263-61.823-138.086-138.086-138.086c-23.799,0-46.19,6.021-65.737,16.622c2.45,3.828,3.834,8.527,3.954,13.764l0.226,9.817   c17.838-11.258,38.948-17.784,61.556-17.784c63.78,0,115.668,51.888,115.668,115.668c0,63.779-51.888,115.667-115.668,115.667   c-63.779,0-115.667-51.888-115.667-115.667c0-18.281,4.275-35.578,11.861-50.963l15.527,8.494   c7.238,3.96,13.004,0.451,12.814-7.797l-1.313-57.09c-0.19-8.248-6.111-11.488-13.159-7.199L53.603,90.453   c-7.048,4.288-6.893,11.036,0.345,14.996l14.863,8.132c-9.31,18.583-14.572,39.545-14.572,61.745   c0,65.084,45.031,119.642,105.634,134.241c-33.259,13.315-56.754,45.84-56.754,83.855c0,15.562,3.937,30.204,10.869,42.985   c2.503-1.602,5.576-2.507,9-2.586l6.419-0.148c-7.362-11.665-11.629-25.468-11.629-40.252c0-41.706,33.93-75.635,75.635-75.635   c41.705,0,75.635,33.93,75.635,75.635c0,41.705-33.93,75.635-75.635,75.635c-11.954,0-23.265-2.796-33.325-7.756l5.555-10.153   c2.589-4.733,0.295-8.503-5.098-8.379l-37.331,0.859c-5.393,0.124-7.512,3.996-4.708,8.605l19.409,31.901   c2.804,4.609,7.217,4.507,9.806-0.226l5.317-9.719c12.151,6.088,25.859,9.528,40.375,9.528c49.707,0,90.029-40.167,90.289-89.813   c20.719,26.825,53.195,44.106,89.711,44.106c62.571,0,113.295-50.724,113.295-113.295   C486.709,305.188,481.768,286.817,473.071,270.779z" fill="#333333"/></g></svg>